<?xml version="1.0" encoding="utf-8"?>
<!-- Generator: Adobe Illustrator 27.5.0, SVG Export Plug-In . SVG Version: 6.00 Build 0)  -->
<svg  version="1.1" xmlns="http://www.w3.org/2000/svg" xmlns:xlink="http://www.w3.org/1999/xlink" x="0px" y="0px"
	 viewBox="0 0 500 500"  xml:space="preserve">
<!-- <g id="BACKGROUND">
	<rect id="XMLID_232_" style="fill:transparent;" width="50" height="500"/>
</g> -->
<g id="OBJECTS">
	
		<radialGradient id="SVGID_1_" cx="250" cy="364.6665" r="88.327" gradientTransform="matrix(1 0 0 0.0897 0 292.6601)" gradientUnits="userSpaceOnUse">
		<stop  offset="5.800000e-07" style="stop-color:#606060"/>
		<stop  offset="0.9997" style="stop-color:#EAEDEE;stop-opacity:0"/>
	</radialGradient>
	<ellipse style="opacity:0.3;fill:url(#SVGID_1_);" cx="250" cy="325.368" rx="124.761" ry="10.991"/>
	<g>
		<g>
			<path style="fill:#026E9E;" d="M331.801,250.668h-6.438l9.563-103.957c0.39-4.24,3.519-7.72,7.693-8.557l13.092-2.625
				L331.801,250.668z"/>
			<path style="fill:#B3B3B3;" d="M315.19,142.833l6.872,107.835l6.592-105.246C322.987,145.337,318.441,144.122,315.19,142.833z"/>
			<path style="fill:#B3B3B3;" d="M332.246,145.25l-8.88,105.418h4.187l18.266-111.102
				C342.982,141.807,338.37,144.544,332.246,145.25z"/>
			
				<ellipse transform="matrix(0.9732 -0.2298 0.2298 0.9732 -60.7962 57.0687)" style="fill:#003159;" cx="214.672" cy="289.611" rx="16.189" ry="16.189"/>
			<circle style="fill:#003159;" cx="286.726" cy="289.611" r="16.189"/>
			<path style="fill:#003159;" d="M340.537,255.316H195.469c-14.659,0-27.068-10.97-28.867-25.518l-13.591-109.961
				c-2.696-22.394-21.738-39.282-44.294-39.282c-4.297,0-7.781,3.484-7.781,7.781s3.484,7.781,7.781,7.781
				c14.688,0,27.088,10.997,28.846,25.604l13.595,109.985c2.76,22.331,21.81,39.172,44.311,39.172h5.286
				c3.893-2.9,8.699-4.639,13.916-4.639c5.217,0,10.023,1.739,13.916,4.639h44.222c3.893-2.9,8.699-4.639,13.916-4.639
				c5.217,0,10.023,1.739,13.916,4.639h39.895c4.297,0,7.781-3.484,7.781-7.781S344.834,255.316,340.537,255.316z"/>
		</g>
		<path style="fill:#048ED6;" d="M310.976,153.54c-1.171-10.261-9.855-18.011-20.183-18.011H159.835l10.454,91.598
			c1.531,13.412,12.881,23.541,26.38,23.541l-19.257-15.138l64.302-41.346l-23.818,47.81c-1.987,3.988,0.914,8.673,5.369,8.673
			h98.796L310.976,153.54z"/>
		<path style="fill:#F7F7F7;" d="M228.356,180.675c-1.547,2.661-4.958,3.565-7.619,2.019c-2.661-1.546-3.565-4.958-2.018-7.619
			c1.081-1.861,3.074-2.837,5.085-2.743c-1.353,0.133-2.627,0.882-3.363,2.147c-1.215,2.09-0.505,4.769,1.585,5.984
			c2.09,1.215,4.77,0.505,5.984-1.585c0.741-1.274,0.758-2.765,0.191-4.012C229.298,176.571,229.445,178.803,228.356,180.675z"/>
		<g>
			<path style="fill:#003159;" d="M269.411,133.79l4.134-0.283c-3.35-5.523-9.811-11.56-18.915-8.77
				c-6.302,1.929-13.65,11.466-21.839,28.344c-5.973,12.31-10.281,24.254-10.324,24.373c-0.336,0.934,0.15,1.962,1.083,2.297
				c0.2,0.072,0.406,0.106,0.607,0.106c0.736,0,1.427-0.457,1.69-1.189c4.645-12.927,19.06-47.199,29.835-50.499
				C262.288,126.15,266.812,130.166,269.411,133.79z"/>
		</g>
		<path style="fill:#003159;" d="M242.182,186.505l-8.579-20.015c-0.869-2.027-2.965-3.245-5.157-2.996l-21.637,2.456
			c-2.691,0.305-5.08,1.866-6.441,4.208l-6.408,11.028l-23.394,40.257c-2.377,4.091-0.988,9.334,3.103,11.711l26.533,15.419
			c4.091,2.377,9.334,0.988,11.711-3.103l29.802-51.285C243.076,191.842,243.249,188.995,242.182,186.505z M228.356,180.675
			c-1.547,2.661-4.958,3.565-7.619,2.019c-2.661-1.546-3.565-4.958-2.018-7.619c1.547-2.661,4.958-3.565,7.619-2.019
			C228.999,174.603,229.903,178.014,228.356,180.675z"/>
	</g>
</g>
</svg>
